<?xml version="1.0" standalone="no"?>
<!DOCTYPE svg PUBLIC "-//W3C//DTD SVG 20010904//EN"
 "http://www.w3.org/TR/2001/REC-SVG-20010904/DTD/svg10.dtd">
<svg version="1.0" xmlns="http://www.w3.org/2000/svg"
 width="150.000000pt" height="60.000000pt" viewBox="0 0 150.000000 60.000000"
 preserveAspectRatio="xMidYMid meet">
<metadata>
Created by potrace 1.16, written by Peter Selinger 2001-2019
</metadata>
<g transform="translate(0.000000,60.000000) scale(0.100000,-0.100000)"
fill="#000000" stroke="none">
<path d="M700 558 c0 -21 -5 -28 -20 -28 -13 0 -20 -7 -20 -20 0 -11 4 -20 9
-20 15 0 32 -56 25 -84 -9 -39 -40 -53 -115 -55 -79 -1 -93 10 -103 83 -5 42
-45 130 -46 100 0 -5 5 -15 11 -21 6 -6 12 -35 12 -63 1 -46 -3 -56 -27 -76
-32 -28 -86 -32 -128 -10 -33 17 -37 7 -7 -20 15 -14 36 -19 76 -19 48 0 58 3
81 30 17 20 27 26 30 17 2 -7 13 -22 25 -32 29 -27 146 -27 181 1 36 28 42 71
17 119 -20 38 -20 39 -1 45 21 7 26 40 10 65 -8 12 -10 9 -10 -12z"/>
</g>
</svg>
