<?xml version="1.0" standalone="no"?>
<!DOCTYPE svg PUBLIC "-//W3C//DTD SVG 20010904//EN"
 "http://www.w3.org/TR/2001/REC-SVG-20010904/DTD/svg10.dtd">
<svg version="1.0" xmlns="http://www.w3.org/2000/svg"
 width="775.000000pt" height="782.000000pt" viewBox="0 0 775.000000 782.000000"
 preserveAspectRatio="xMidYMid meet">
<metadata>
Created by potrace 1.16, written by Peter Selinger 2001-2019
</metadata>
<g transform="translate(0.000000,782.000000) scale(0.100000,-0.100000)"
fill="#000000" stroke="none">
<path d="M3740 7533 c-20 -8 -50 -34 -50 -44 0 -4 20 -1 44 8 57 21 89 9 105
-40 21 -64 -23 -118 -84 -103 -51 13 -41 55 13 56 19 0 23 5 20 26 -2 15 -10
31 -19 37 -21 13 -65 2 -73 -18 -5 -13 1 -15 32 -10 l37 6 -33 -15 c-18 -8
-35 -22 -38 -30 -5 -12 -9 -11 -25 5 -10 10 -31 19 -45 19 -14 0 -22 4 -19 10
3 5 19 7 35 3 34 -6 37 -1 14 21 -32 32 -84 8 -84 -39 0 -20 6 -24 37 -27 27
-2 39 -8 41 -21 5 -24 -28 -35 -43 -14 -16 23 -32 21 -38 -3 -7 -26 -33 -26
-47 1 -15 27 -5 66 20 79 25 13 26 30 2 30 -51 0 -81 -89 -46 -138 15 -21 62
-31 78 -15 4 4 24 6 46 4 30 -2 42 2 51 17 13 20 13 20 37 1 16 -12 40 -19 69
-19 36 0 50 6 75 30 28 28 30 35 26 81 -4 36 -12 58 -30 75 -24 25 -80 39
-108 27z"/>
<path d="M4197 7454 c-20 -6 -47 -54 -47 -83 0 -35 42 -73 82 -74 82 -2 109
84 36 112 -21 8 -31 6 -49 -8 -19 -15 -20 -20 -9 -40 9 -17 18 -22 36 -18 13
2 24 0 24 -4 0 -13 -54 -11 -68 3 -15 15 -15 61 0 76 15 15 53 15 80 1 25 -14
36 -3 17 17 -16 16 -73 26 -102 18z"/>
<path d="M3301 7424 c-57 -73 20 -166 102 -123 12 7 25 17 29 23 12 17 9 61
-4 74 -17 17 -73 15 -89 -4 -20 -25 2 -49 42 -47 32 1 33 0 15 -13 -27 -19
-42 -18 -66 6 -26 26 -25 45 1 71 17 17 28 20 56 14 27 -5 34 -3 31 7 -3 8
-24 14 -50 16 -40 3 -49 -1 -67 -24z"/>
<path d="M4386 7428 c-9 -5 -16 -16 -16 -25 0 -11 6 -14 26 -9 21 6 25 4 22
-11 -4 -17 -15 -20 -48 -12 -25 6 -25 -56 -1 -80 30 -30 94 -29 115 1 20 28
20 52 1 68 -16 14 -11 30 10 30 22 0 45 -29 45 -56 0 -17 -9 -30 -30 -42 -16
-9 -30 -23 -30 -29 0 -20 34 -15 64 8 21 16 26 29 26 64 0 56 -37 90 -87 82
-18 -3 -35 -2 -38 2 -8 14 -41 19 -59 9z"/>
<path d="M2800 7419 c-35 -14 -60 -39 -60 -60 0 -29 16 -31 81 -13 l62 17 24
-27 c28 -33 29 -56 2 -90 -14 -18 -30 -26 -53 -26 -41 0 -56 16 -55 55 2 30 2
30 6 2 9 -61 95 -54 101 9 4 45 -17 58 -75 48 -36 -7 -51 -15 -62 -36 -14 -24
-14 -30 2 -63 9 -20 28 -40 43 -45 33 -13 89 1 120 31 31 29 33 95 3 133 -11
14 -17 31 -14 36 21 33 -65 53 -125 29z"/>
<path d="M4654 7405 c-17 -13 -15 -14 34 -15 38 0 57 -5 72 -20 24 -24 26 -77
4 -108 -20 -29 -83 -31 -108 -3 -25 27 -11 44 30 38 26 -5 34 -2 39 13 11 33
-12 60 -50 60 -26 0 -35 -4 -35 -16 0 -12 6 -15 25 -10 14 4 25 2 25 -4 0 -5
-13 -10 -29 -10 -58 0 -69 -66 -18 -104 35 -26 109 -29 132 -5 27 26 44 89 34
123 -18 65 -104 99 -155 61z"/>
<path d="M2624 7275 c-10 -8 -29 -15 -41 -15 -29 0 -64 -35 -57 -55 8 -19 -15
-19 -40 0 -17 13 -22 13 -42 0 -13 -8 -30 -15 -37 -15 -8 0 -20 -7 -27 -15
-20 -24 -40 -18 -40 11 0 33 -24 27 -28 -7 -2 -13 -14 -34 -28 -47 -30 -28
-31 -72 -4 -97 11 -10 19 -26 18 -35 -4 -22 8 -23 64 -4 76 25 98 75 57 128
-12 15 -18 30 -14 34 3 4 14 -4 24 -16 20 -27 33 -19 24 16 -8 34 16 25 40
-15 23 -39 14 -65 -20 -57 -21 6 -24 3 -21 -12 4 -25 33 -29 64 -9 19 12 25
23 21 41 -5 26 7 33 17 9 3 -9 18 -15 39 -15 19 0 40 7 47 15 7 8 25 15 41 15
61 0 77 84 21 114 -15 9 -21 15 -13 16 11 0 11 3 1 15 -16 19 -41 19 -66 0z"/>
<path d="M5000 7260 c-18 -11 -8 -22 22 -25 36 -4 38 -5 38 -13 0 -4 -18 -6
-39 -4 -33 3 -42 0 -56 -22 -16 -24 -16 -28 -1 -51 37 -56 129 -84 166 -50 30
27 25 60 -12 89 -18 14 -27 26 -19 26 8 0 22 -7 32 -16 10 -9 23 -13 28 -9 19
11 -7 43 -41 50 -18 4 -42 14 -53 21 -23 16 -44 18 -65 4z"/>
<path d="M5250 7217 c-18 -9 -25 -21 -25 -40 1 -15 -3 -27 -8 -27 -4 0 -15
-16 -22 -35 -25 -57 10 -111 78 -122 31 -5 40 -1 67 25 33 33 38 67 15 98 -18
24 -19 34 -1 34 7 0 19 6 25 14 14 17 -9 29 -36 19 -10 -4 -14 -2 -9 5 6 11
-30 42 -49 42 -5 0 -21 -6 -35 -13z"/>
<path d="M5433 7060 c-23 -9 -53 -58 -53 -85 0 -28 55 -75 88 -75 62 0 84 79
30 110 -26 14 -29 13 -49 -7 -19 -19 -21 -24 -9 -39 8 -9 23 -20 35 -24 18 -8
18 -9 2 -9 -55 -2 -79 62 -35 93 29 21 31 21 68 -10 32 -27 47 -27 37 1 -7 16
-65 55 -82 54 -5 0 -20 -4 -32 -9z"/>
<path d="M1962 7020 c-18 -11 -37 -32 -42 -46 -13 -33 -13 -34 4 -34 8 0 21
12 28 27 30 63 106 52 142 -21 17 -34 17 -39 3 -53 -19 -19 -40 -7 -34 19 8
29 -34 72 -61 64 -32 -11 -62 -46 -62 -74 l0 -24 -31 26 c-45 38 -92 35 -135
-8 -19 -19 -34 -43 -34 -55 0 -30 17 -26 35 9 22 42 55 56 93 41 50 -21 84
-116 42 -116 -9 0 -17 13 -20 35 -9 60 -68 72 -107 21 -25 -32 -4 -111 32
-125 34 -13 67 -6 72 14 3 11 14 20 24 20 33 0 62 38 55 73 -6 29 -5 29 12 14
25 -23 59 -21 74 3 7 11 22 20 34 20 53 0 70 73 31 131 -40 60 -97 74 -155 39z"/>
<path d="M3676 6972 c-43 -32 -65 -65 -66 -103 0 -20 -9 -29 -49 -46 -70 -29
-94 -69 -88 -149 l4 -61 -64 -12 c-153 -28 -385 -122 -523 -211 -60 -39 -65
-41 -75 -24 -47 84 -140 111 -221 66 -14 -8 -25 -5 -47 10 -65 46 -163 29
-210 -36 -31 -44 -31 -123 1 -166 16 -21 20 -35 14 -43 -19 -24 -31 -87 -21
-119 10 -36 54 -86 86 -99 21 -8 21 -10 -24 -76 -102 -153 -178 -337 -227
-555 -6 -25 -8 -26 -36 -16 -66 22 -150 -18 -181 -86 -16 -37 -24 -45 -56 -51
-26 -5 -51 -20 -80 -51 -39 -40 -43 -49 -43 -94 0 -45 4 -54 43 -94 29 -31 54
-46 80 -51 31 -6 40 -14 56 -50 30 -69 107 -103 183 -82 26 7 28 5 39 -38 11
-44 34 -66 24 -22 -18 78 -35 244 -35 342 0 648 418 1237 1037 1461 189 68
355 97 563 96 353 -1 664 -100 950 -305 107 -77 255 -225 343 -342 80 -106
195 -333 231 -455 49 -165 59 -235 60 -420 2 -288 -30 -450 -130 -669 -36 -78
-39 -91 -25 -91 21 0 125 278 151 403 6 31 13 57 14 57 2 0 17 -5 35 -11 67
-23 157 24 181 95 9 28 17 35 49 40 72 11 121 71 121 147 0 67 -59 130 -130
140 -17 3 -31 17 -47 50 -36 72 -116 106 -186 80 -24 -9 -25 -8 -37 51 -30
153 -121 373 -214 513 -40 61 -44 71 -30 80 45 27 74 59 84 91 15 43 7 100
-16 125 -16 18 -16 20 4 42 48 52 50 115 5 175 -49 66 -132 81 -197 37 -33
-22 -39 -23 -59 -11 -60 37 -138 26 -185 -28 -16 -19 -32 -40 -34 -47 -3 -9
-28 2 -79 34 -149 93 -366 179 -523 208 -54 10 -66 16 -60 28 14 35 16 52 10
86 -9 45 -59 103 -98 113 -25 6 -33 16 -47 57 -12 37 -27 58 -59 82 -57 43
-110 44 -166 5z m115 -2 c20 -6 44 -19 53 -29 17 -19 17 -20 -12 -35 -17 -9
-41 -29 -54 -46 l-23 -30 -20 30 c-11 17 -35 37 -53 46 -38 18 -34 30 22 55
49 22 42 21 87 9z m-92 -186 c36 -30 57 -88 44 -122 -8 -20 -17 -24 -59 -27
-27 -1 -79 -6 -116 -10 l-66 -7 -10 36 c-14 49 1 98 39 130 44 37 124 37 168
0z m289 -8 c33 -31 37 -39 37 -85 0 -27 -5 -55 -11 -61 -9 -9 -41 -9 -128 1
l-116 12 0 39 c0 82 45 128 127 128 47 0 58 -4 91 -34z m-1276 -346 c37 -11
88 -60 88 -85 0 -7 -39 -45 -86 -84 -94 -79 -108 -82 -145 -30 -18 25 -21 40
-17 87 4 48 9 60 38 83 18 16 42 30 54 32 12 2 23 5 26 6 3 0 22 -4 42 -9z
m2198 -18 c14 -10 33 -34 43 -53 29 -56 5 -137 -48 -161 -22 -10 -30 -6 -73
33 -26 24 -65 58 -86 74 l-39 30 17 34 c34 64 127 86 186 43z m-2377 -186 c18
-7 41 -25 51 -40 l17 -27 -52 -57 c-29 -31 -61 -69 -72 -84 -27 -37 -52 -35
-93 6 -29 29 -34 41 -34 83 0 55 17 85 64 114 37 22 74 24 119 5z m2562 -2
c83 -39 95 -148 24 -209 -29 -24 -69 -34 -69 -17 0 4 -29 41 -65 82 -36 41
-65 80 -65 86 0 12 49 59 70 67 29 10 72 7 105 -9z m-2944 -921 c5 -5 5 -33
-1 -68 -5 -33 -10 -84 -10 -112 0 -48 -2 -53 -25 -59 -44 -11 -92 5 -123 41
-41 46 -48 86 -25 132 27 55 77 86 131 80 24 -3 48 -9 53 -14z m3346 -3 c39
-24 56 -53 56 -100 0 -48 -27 -96 -63 -115 -35 -18 -109 -20 -114 -2 -2 6 -8
59 -13 116 -8 98 -7 104 12 112 35 14 89 9 122 -11z m-3586 -229 l30 -19 -30
-22 c-17 -12 -38 -35 -46 -51 -19 -36 -28 -36 -51 -2 -27 41 -24 111 5 152
l24 34 19 -37 c10 -20 33 -45 49 -55z m3790 44 c22 -49 19 -90 -8 -132 -20
-30 -29 -29 -48 7 -9 17 -29 39 -45 48 l-29 18 35 28 c19 15 39 39 44 52 14
36 29 29 51 -21z m-205 -90 c37 -24 56 -61 56 -106 -1 -74 -54 -124 -129 -122
-62 2 -72 13 -62 70 4 27 8 76 8 110 1 50 4 62 19 67 27 8 82 -2 108 -19z
m-3354 -79 c3 -49 9 -99 12 -111 15 -60 -109 -69 -162 -12 -52 55 -46 134 14
187 31 27 42 31 82 28 l47 -3 7 -89z"/>
<path d="M5605 6956 c-36 -16 -58 -53 -53 -92 2 -22 12 -33 39 -46 19 -9 41
-23 48 -32 20 -24 67 -20 85 6 22 30 20 54 -5 79 -11 11 -18 24 -14 27 4 4 14
-3 22 -15 19 -28 33 -29 33 -4 0 20 -35 51 -57 51 -7 0 -22 -9 -34 -21 l-21
-21 34 -28 c31 -27 32 -29 16 -46 -14 -14 -20 -15 -33 -4 -8 7 -13 21 -10 30
3 11 -1 20 -10 24 -8 3 -15 1 -15 -4 0 -16 -40 -11 -46 5 -4 8 1 26 10 40 12
19 25 25 51 25 43 0 54 17 20 30 -14 6 -27 10 -28 10 -1 -1 -15 -7 -32 -14z"/>
<path d="M5801 6850 c-8 -4 -10 -13 -6 -21 6 -11 5 -12 -6 -1 -7 6 -19 12 -26
12 -8 0 -13 -6 -11 -12 1 -7 -6 -25 -16 -40 -22 -34 -14 -65 22 -81 15 -6 37
-22 49 -34 29 -30 77 -31 97 -1 22 31 20 45 -10 75 -14 14 -22 28 -19 32 4 3
17 -7 30 -23 14 -18 25 -24 29 -17 13 20 -4 48 -34 61 -17 7 -30 16 -30 21 0
15 -55 38 -69 29z"/>
<path d="M1607 6781 c-38 -24 -59 -57 -56 -84 2 -12 -1 -32 -5 -44 -4 -13 -5
-27 -1 -32 8 -14 35 -2 35 15 0 18 16 18 23 1 7 -18 -3 -32 -27 -40 -18 -7
-18 -9 4 -32 31 -33 73 -33 105 0 14 13 25 32 25 41 0 13 3 14 14 5 12 -10 18
-7 31 13 43 65 -47 153 -111 111 -15 -9 -29 -26 -31 -36 -7 -25 -33 -25 -33 0
0 25 57 73 79 67 21 -7 46 9 37 23 -11 17 -58 13 -89 -8z"/>
<path d="M6401 6590 c96 -96 214 -223 262 -281 454 -557 722 -1174 824 -1899
22 -160 25 -717 5 -880 -91 -719 -354 -1345 -797 -1900 -131 -165 -397 -430
-565 -564 -553 -440 -1190 -706 -1900 -793 -201 -24 -629 -24 -830 0 -165 20
-400 65 -539 102 -52 14 -96 24 -98 21 -7 -7 230 -68 396 -101 668 -135 1310
-99 1924 106 1061 354 1895 1163 2289 2219 203 545 270 1183 187 1778 -77 559
-299 1123 -624 1587 -156 222 -444 547 -640 719 -38 33 9 -18 106 -114z"/>
<path d="M6001 6701 c-16 -10 -6 -31 15 -31 19 0 18 -19 -2 -27 -10 -4 -22 1
-29 10 -16 22 -32 21 -45 -2 -18 -35 -11 -68 21 -95 17 -14 38 -26 46 -26 9 0
13 -3 10 -7 -12 -12 15 -33 42 -33 15 0 36 7 47 15 30 22 40 18 16 -8 -28 -29
-28 -62 -1 -85 11 -9 36 -32 54 -49 38 -37 51 -40 82 -18 30 21 34 51 12 79
-21 27 -24 36 -9 36 6 0 15 -11 20 -25 12 -32 30 -32 30 -2 0 25 -28 57 -48
57 -7 0 -12 7 -12 15 0 24 -49 51 -69 38 -24 -15 -36 -4 -37 36 -1 38 -32 71
-65 71 -12 0 -19 7 -19 20 0 10 -9 24 -19 30 -23 12 -22 12 -40 1z"/>
<path d="M1185 6389 c-43 -38 -59 -73 -46 -97 6 -11 6 -24 0 -34 -11 -20 -1
-50 15 -45 6 2 10 11 8 21 -2 9 2 16 7 16 5 0 11 -19 13 -42 2 -24 8 -43 15
-43 6 0 15 -3 19 -7 23 -23 94 29 94 69 0 8 6 13 13 10 16 -5 36 22 37 51 0
31 -52 82 -83 82 -30 0 -75 -34 -87 -66 -13 -34 -27 -30 -22 5 5 35 38 68 72
73 31 4 33 32 3 36 -13 2 -35 -9 -58 -29z"/>
<path d="M6397 6413 c-13 -13 -7 -40 14 -59 12 -10 30 -32 40 -48 16 -26 16
-32 4 -56 -24 -46 -78 -54 -113 -17 -27 28 -28 58 -4 80 30 27 44 20 16 -8
-21 -21 -23 -28 -14 -45 6 -12 22 -26 35 -32 31 -14 75 12 75 45 0 30 -61 87
-93 87 -27 0 -77 -50 -77 -76 0 -46 64 -114 108 -114 27 0 92 36 92 51 0 6 14
23 31 39 30 27 31 30 19 59 -24 59 -109 119 -133 94z"/>
<path d="M3527 6344 c-48 -7 -135 -29 -194 -49 -545 -182 -914 -683 -913
-1239 0 -164 27 -328 60 -368 19 -23 19 -23 5 17 -53 158 -59 464 -12 645 62
241 178 443 352 616 174 173 412 298 660 350 151 32 394 32 540 0 138 -30 229
-63 355 -127 352 -180 608 -528 676 -919 26 -150 15 -379 -25 -531 -16 -64
-48 -156 -70 -204 -45 -97 -45 -95 -32 -95 18 0 92 180 126 305 37 139 46 364
20 525 -88 541 -552 992 -1104 1075 -118 18 -326 18 -444 -1z"/>
<path d="M3650 6264 c-481 -42 -903 -364 -1064 -811 -60 -170 -85 -355 -66
-509 13 -115 48 -260 80 -331 35 -79 37 -45 4 52 -29 83 -64 231 -64 271 0 31
114 11 239 -41 l64 -26 48 20 c65 28 197 59 290 67 l76 6 17 -53 c10 -30 26
-68 36 -86 l19 -32 -42 -38 c-55 -51 -126 -99 -212 -145 -79 -42 -63 -52 18
-12 65 33 128 75 193 131 28 24 54 43 56 43 3 0 13 -12 23 -26 l17 -27 -113
-113 c-90 -91 -119 -114 -141 -114 -16 0 -28 -4 -28 -10 0 -5 11 -10 25 -10
20 0 25 -5 25 -25 0 -14 7 -41 15 -61 8 -19 10 -32 5 -29 -6 3 -10 2 -10 -4 0
-5 5 -13 11 -17 20 -12 27 18 13 52 -29 69 -23 80 100 203 l114 114 26 -19
c14 -11 26 -23 26 -27 0 -5 -22 -34 -48 -65 -62 -72 -116 -152 -103 -152 5 0
32 30 60 68 27 37 63 83 80 102 l30 35 33 -18 c18 -9 56 -26 83 -36 l50 -19 3
-66 c4 -83 22 -78 22 6 0 58 1 60 23 54 12 -3 30 -6 40 -6 14 0 17 -10 17 -65
0 -37 4 -65 10 -65 6 0 10 28 10 64 l0 64 35 4 c34 4 35 3 35 -30 0 -61 23
-172 38 -184 13 -11 14 -10 9 7 -9 26 -27 153 -27 186 0 22 7 28 43 38 23 7
60 22 81 32 22 10 44 19 50 19 12 0 50 -43 121 -137 50 -66 91 -108 70 -72
-31 52 -89 132 -129 176 l-46 51 31 23 31 22 114 -114 c63 -63 114 -119 114
-126 0 -7 5 -13 10 -13 6 0 10 5 10 10 0 6 11 10 24 10 14 0 28 5 31 10 4 6
-7 10 -27 10 -28 1 -49 16 -149 114 l-116 113 23 27 23 26 63 -51 c72 -57 98
-74 98 -61 0 6 -17 22 -37 38 -21 15 -54 42 -73 59 l-36 31 18 30 c10 16 27
54 39 84 l20 55 82 -6 c104 -8 130 -13 250 -51 l98 -30 70 31 c68 30 202 61
214 49 10 -10 -23 -174 -52 -258 -34 -101 -112 -249 -175 -332 l-52 -68 -27
33 c-16 17 -42 58 -59 90 -17 31 -36 57 -41 57 -13 0 26 -76 72 -137 23 -31
36 -58 33 -67 -13 -34 16 -13 50 37 20 28 55 75 76 102 48 60 109 182 144 287
108 321 72 677 -99 968 -216 367 -599 596 -1025 613 -63 3 -135 3 -160 1z
m102 -121 c3 -103 2 -109 -22 -136 -18 -20 -41 -32 -74 -38 -27 -5 -51 -7 -53
-5 -2 1 10 34 26 72 16 38 34 96 41 129 16 85 16 85 49 85 l30 0 3 -107z m94
93 c1 0 9 -36 18 -78 8 -43 27 -100 41 -127 34 -68 33 -72 -17 -65 -94 14
-110 39 -109 171 0 54 0 102 1 106 0 7 59 0 66 -7z m-192 -38 c-10 -70 -25
-120 -50 -170 -31 -61 -32 -81 -6 -148 35 -93 54 -182 55 -265 2 -78 1 -80
-23 -84 -14 -1 -52 -15 -85 -30 l-61 -28 -35 41 c-71 82 -118 153 -154 228
-20 42 -42 81 -48 87 -7 5 -43 21 -80 35 -55 21 -187 100 -187 112 0 10 181
121 251 153 122 57 299 106 397 110 l32 1 -6 -42z m327 27 c106 -18 241 -64
344 -116 80 -40 215 -132 215 -146 -1 -16 -97 -78 -155 -100 -100 -39 -106
-44 -149 -128 -50 -97 -89 -153 -149 -221 l-46 -51 -67 33 c-36 19 -76 34 -87
34 -19 0 -20 4 -14 73 9 100 32 207 63 283 l25 63 -30 69 c-17 39 -35 94 -41
123 -6 30 -13 64 -16 77 -5 27 -3 27 107 7z m-965 -301 c56 -42 104 -67 162
-84 23 -7 42 -17 42 -21 0 -20 -76 -59 -115 -59 -36 0 -48 7 -120 74 l-80 74
24 26 c14 14 28 26 33 26 4 0 29 -16 54 -36z m1574 1 l24 -26 -75 -75 c-69
-69 -79 -75 -117 -76 -31 0 -54 7 -83 28 l-41 28 33 15 c97 41 158 73 189 100
19 17 38 30 41 31 3 0 16 -11 29 -25z m-908 -4 c24 -10 49 -25 55 -33 8 -9 13
-70 15 -176 3 -160 3 -162 -19 -162 -12 0 -28 -3 -37 -6 -13 -5 -16 2 -16 45
0 61 -34 226 -61 294 -10 26 -19 50 -19 52 0 11 41 4 82 -14z m248 14 c0 -2
-9 -28 -20 -58 -29 -77 -60 -223 -60 -284 0 -56 -1 -56 -46 -47 l-29 5 2 162
2 162 27 21 c35 29 124 57 124 39z m-880 -231 c0 -36 -41 -114 -61 -114 -4 0
-13 17 -20 38 -20 61 -49 114 -91 165 l-40 48 28 30 29 30 77 -79 c70 -71 78
-83 78 -118z m1610 151 l23 -25 -37 -47 c-33 -42 -62 -97 -95 -177 -11 -27
-13 -28 -31 -11 -30 27 -51 81 -44 112 6 24 138 173 155 173 3 0 16 -11 29
-25z m-1785 -85 c21 -28 51 -85 69 -127 l31 -77 101 -51 c105 -53 153 -85 223
-148 l42 -38 -21 -30 c-12 -16 -30 -53 -40 -82 l-19 -52 -68 3 c-88 5 -198 27
-285 58 l-69 25 -89 -35 c-48 -20 -115 -39 -149 -42 l-60 -7 5 39 c20 141 84
325 152 439 58 97 117 175 133 175 4 0 24 -23 44 -50z m1872 -19 c96 -132 171
-301 204 -459 26 -126 25 -144 -3 -138 -13 3 -45 8 -73 11 -27 4 -80 20 -117
36 -36 16 -74 29 -84 29 -10 0 -52 -12 -93 -26 -76 -27 -224 -54 -292 -54 -34
0 -37 3 -48 43 -7 23 -23 61 -36 84 l-23 43 81 65 c45 36 129 89 186 117 75
38 106 59 114 77 49 123 113 232 135 231 4 0 26 -27 49 -59z m-1472 -13 c36
-76 82 -145 146 -219 51 -60 51 -65 0 -94 -21 -12 -241 212 -241 245 0 28 45
130 57 130 4 0 21 -28 38 -62z m1045 1 c12 -22 21 -56 22 -76 1 -34 -6 -43
-113 -144 -63 -60 -116 -108 -119 -108 -3 0 -16 8 -29 18 l-25 19 40 47 c70
83 112 145 151 220 20 40 41 71 45 69 5 -3 17 -23 28 -45z m-1036 -221 l116
-113 -24 -29 -24 -29 -84 67 c-45 37 -123 87 -173 112 -49 25 -91 47 -93 49
-2 1 21 14 49 29 91 45 101 41 233 -86z m1198 70 c21 -12 38 -24 38 -27 0 -3
-29 -19 -64 -35 -80 -35 -170 -93 -234 -151 l-50 -45 -23 32 -23 32 119 114
c119 113 120 113 159 107 22 -3 57 -15 78 -27z m-559 -88 c183 -69 303 -225
315 -412 20 -314 -262 -557 -578 -498 -71 13 -122 35 -191 83 -121 83 -189
210 -195 363 -5 139 32 237 129 340 66 71 167 129 253 144 75 14 202 4 267
-20z m-868 -335 c38 -8 101 -17 138 -20 55 -5 67 -10 63 -22 -3 -8 -6 -23 -6
-34 0 -18 -9 -19 -163 -19 -157 0 -164 1 -185 23 -24 26 -52 87 -52 115 0 19
3 18 67 -5 38 -13 99 -31 138 -38z m-235 8 c-6 -35 -16 -54 -39 -75 -30 -27
-35 -28 -141 -28 -119 0 -119 0 -104 56 5 18 16 22 65 28 33 3 92 19 132 35
40 16 77 30 83 30 7 1 9 -14 4 -46z m1840 17 c0 -28 -20 -71 -49 -102 l-25
-28 -162 0 -162 0 -4 33 -4 33 111 12 c72 7 139 21 195 40 104 37 100 36 100
12z m120 -16 c36 -15 92 -29 127 -32 52 -4 62 -8 67 -26 15 -56 15 -56 -105
-56 -137 0 -161 12 -178 91 -6 27 -11 53 -11 56 0 7 21 0 100 -33z m-1997
-148 c25 -23 30 -37 40 -99 5 -33 6 -33 -90 7 -34 15 -90 29 -125 33 -68 7
-78 13 -78 56 l0 27 114 0 c106 0 115 -2 139 -24z m467 5 c0 -11 3 -26 6 -35
5 -13 -1 -16 -32 -16 -94 0 -324 -53 -361 -83 -22 -16 -15 33 11 89 13 29 30
54 37 57 8 3 87 6 177 6 153 1 162 0 162 -18z m1358 -14 c24 -26 52 -87 52
-115 0 -19 -2 -19 -63 4 -86 31 -204 54 -275 54 -32 0 -61 2 -63 5 -3 2 -3 20
-1 40 l4 35 162 0 c156 0 163 -1 184 -23z m363 18 c3 -2 3 -20 1 -38 -4 -34
-5 -34 -61 -40 -31 -2 -92 -19 -135 -36 -43 -17 -81 -31 -85 -31 -4 0 -5 21
-1 47 6 35 16 54 39 75 30 27 36 28 134 28 57 0 106 -2 108 -5z"/>
<path d="M3655 5407 c-130 -43 -214 -123 -255 -243 -52 -151 11 -323 150 -414
283 -182 656 79 566 396 -45 157 -183 265 -346 271 -42 2 -92 -3 -115 -10z
m248 -35 c65 -29 142 -104 174 -171 24 -48 27 -68 27 -146 0 -71 -4 -100 -21
-137 -30 -66 -105 -143 -172 -175 -50 -25 -67 -28 -156 -28 -89 0 -106 3 -157
28 -82 40 -152 120 -178 204 -11 36 -20 84 -20 108 0 24 9 72 20 108 33 106
133 199 244 228 55 14 187 4 239 -19z"/>
<path d="M3668 5295 c-58 -21 -107 -63 -139 -119 -39 -69 -41 -163 -4 -235 77
-154 289 -188 411 -66 54 54 88 142 80 204 -22 160 -200 271 -348 216z m67
-24 c-36 -16 -93 -70 -96 -89 -7 -57 -3 -69 27 -99 18 -18 39 -33 48 -33 9 0
16 -4 16 -8 0 -18 -27 -32 -63 -32 -93 0 -128 107 -68 203 25 38 39 49 78 61
26 8 59 15 73 15 21 0 18 -3 -15 -18z m143 -15 c30 -16 60 -46 87 -89 l18 -28
-53 33 c-45 28 -62 33 -115 33 -77 0 -105 -20 -105 -75 0 -20 5 -41 12 -48 9
-9 8 -12 -5 -12 -25 0 -67 45 -67 72 0 88 142 159 228 114z m-318 -75 c-5 -11
-10 -41 -10 -67 0 -41 5 -51 39 -85 32 -33 45 -39 80 -39 31 0 48 6 66 24 24
24 25 24 35 6 17 -32 12 -78 -9 -90 -45 -23 -148 -4 -193 37 -10 9 -21 13 -25
10 -18 -18 77 -68 141 -73 87 -8 128 27 110 96 -6 22 -9 40 -7 40 20 0 64 -35
69 -55 20 -82 -86 -160 -191 -141 -60 12 -144 101 -129 139 3 8 1 18 -5 22
-18 10 -12 106 9 153 10 23 22 42 25 42 3 0 1 -9 -5 -19z m349 -21 c42 -21 91
-76 91 -102 0 -26 -29 -113 -44 -133 -14 -18 -14 -17 -5 19 13 46 4 104 -19
130 -21 22 -72 50 -72 38 0 -5 11 -14 24 -20 33 -15 58 -55 59 -95 1 -80 -46
-146 -118 -166 -67 -18 -84 -13 -37 10 50 25 92 81 92 122 0 33 -57 97 -85 97
-33 0 -10 27 40 46 19 7 19 8 -4 12 -15 2 -32 -5 -52 -24 l-28 -27 -11 28 c-6
16 -10 38 -8 49 7 48 98 57 177 16z"/>
<path d="M1004 6169 c-28 -14 -54 -61 -54 -99 0 -42 22 -35 31 11 16 74 87 88
142 28 30 -32 31 -52 4 -57 -11 -2 -21 6 -26 22 -32 82 -129 27 -106 -61 5
-21 4 -24 -7 -16 -39 31 -110 16 -142 -28 -19 -28 -22 -103 -4 -97 7 3 16 22
19 43 12 73 75 87 136 31 32 -29 35 -36 24 -49 -16 -21 -38 -12 -45 19 -9 35
-51 42 -82 13 -33 -31 -32 -73 5 -110 43 -42 111 -37 111 9 0 8 11 23 25 34
27 21 34 65 14 85 -8 8 -2 11 22 10 22 -1 37 -8 41 -19 13 -31 35 -20 94 48
l58 66 -44 38 c-25 21 -48 36 -51 34 -4 -2 -13 3 -20 12 -32 39 -100 54 -145
33z"/>
<path d="M732 5784 c-36 -43 -44 -77 -25 -103 7 -11 13 -24 12 -28 -1 -4 -1
-16 0 -25 1 -25 31 -23 31 2 0 11 5 20 10 20 17 0 23 -29 10 -46 -16 -19 -5
-32 36 -40 26 -5 35 -1 57 26 32 38 34 59 6 94 -22 28 -48 33 -67 14 -9 -9
-12 -8 -12 8 0 66 92 54 102 -14 5 -37 23 -30 26 9 3 30 -2 41 -24 58 -55 43
-134 14 -134 -51 0 -36 -25 -37 -28 -1 -3 33 22 71 54 83 31 12 31 30 0 30
-16 0 -35 -13 -54 -36z"/>
<path d="M6840 5620 c0 -6 31 -72 69 -148 343 -686 444 -1465 290 -2242 -117
-590 -440 -1214 -853 -1648 -49 -51 -86 -96 -82 -99 17 -17 252 249 383 432
332 466 551 1027 617 1585 9 74 21 168 26 208 6 40 10 142 10 227 0 85 -4 187
-10 227 -5 40 -17 134 -26 208 -44 375 -151 732 -326 1093 -73 149 -98 189
-98 157z"/>
<path d="M486 4958 c-143 -473 -183 -953 -122 -1474 92 -782 501 -1572 1090
-2105 60 -55 112 -97 115 -94 3 3 -54 62 -126 130 -207 197 -380 402 -526 625
-497 758 -675 1680 -496 2575 26 128 83 351 104 408 4 9 3 17 -3 17 -6 0 -22
-37 -36 -82z"/>
<path d="M2207 4679 c-32 -26 -37 -36 -35 -70 1 -38 10 -49 23 -29 9 15 51 12
64 -4 7 -9 11 -39 9 -78 l-3 -63 -48 -7 c-48 -7 -137 -51 -137 -68 0 -6 -4
-10 -10 -10 -5 0 -10 6 -10 14 0 8 -14 26 -31 40 -34 29 -96 35 -139 13 -35
-18 -70 -74 -70 -113 0 -34 0 -34 49 -34 43 0 50 3 53 21 2 12 11 27 21 33 24
15 47 -15 47 -62 0 -59 -89 -123 -106 -77 -4 10 -20 15 -51 15 l-46 0 6 -86
c6 -105 34 -165 96 -209 36 -25 54 -30 117 -33 93 -5 149 14 197 67 44 49 60
99 55 171 -5 68 -39 121 -94 147 -28 14 -31 19 -21 31 6 8 26 21 44 29 105 43
196 -36 196 -172 0 -92 -38 -150 -105 -164 -32 -6 -33 -9 -36 -59 l-3 -52 41
0 c86 0 168 70 196 167 36 124 0 275 -81 340 -29 23 -35 35 -35 66 0 37 0 37
41 37 31 0 47 6 70 29 49 49 38 129 -26 183 -20 17 -65 24 -65 11 0 -5 -11
-16 -25 -26 -23 -17 -25 -16 -51 8 -35 32 -52 32 -97 -6z m-83 -530 c33 -26
36 -84 6 -122 -45 -57 -151 -59 -202 -5 -27 29 -39 66 -18 53 19 -12 76 15
115 55 44 45 61 49 99 19z"/>
<path d="M4367 4679 c-31 -26 -37 -37 -37 -70 0 -37 12 -51 25 -29 9 15 51 12
64 -4 7 -9 11 -39 9 -78 l-3 -63 -46 -6 c-54 -8 -84 -22 -120 -55 l-25 -24
-14 26 c-32 59 -126 73 -181 27 -33 -28 -59 -78 -59 -113 0 -18 6 -20 54 -20
52 0 55 1 58 28 2 19 9 28 24 30 26 4 48 -43 39 -81 -15 -56 -93 -102 -109
-62 -3 10 -19 15 -46 15 l-40 0 0 -74 c0 -164 79 -255 224 -256 84 0 135 18
182 66 94 93 78 267 -30 318 -20 9 -36 20 -36 25 0 15 78 51 112 51 163 0 189
-329 28 -351 -23 -4 -25 -9 -28 -56 l-3 -53 38 0 c128 0 227 147 209 312 -7
75 -38 139 -92 191 -34 32 -44 49 -44 75 0 31 1 32 41 32 31 0 47 6 70 29 49
49 38 129 -26 183 -20 17 -65 24 -65 11 0 -5 -11 -16 -25 -26 -23 -17 -25 -16
-51 8 -35 33 -52 32 -97 -6z m-76 -528 c18 -14 24 -29 24 -59 0 -108 -155
-149 -229 -61 -31 37 -33 53 -6 44 26 -8 79 18 120 60 39 40 58 43 91 16z"/>
<path d="M5618 4684 c-35 -22 -38 -28 -38 -70 0 -39 2 -45 14 -35 8 7 27 11
43 9 28 -3 28 -3 31 -85 3 -76 1 -83 -16 -83 -11 0 -31 -9 -45 -21 l-26 -20
-30 22 c-43 32 -152 33 -202 2 -38 -24 -57 -53 -61 -93 -3 -23 1 -25 40 -28
36 -3 48 1 67 22 29 32 84 35 108 8 35 -38 24 -42 -134 -42 l-150 0 3 -47 c3
-47 4 -48 36 -48 37 0 38 -2 15 -27 -11 -12 -18 -41 -21 -81 -7 -122 66 -197
193 -197 48 0 70 5 96 23 l34 23 35 -24 c30 -21 44 -23 106 -20 60 3 77 8 109
32 55 42 79 103 73 187 -9 126 -58 170 -195 177 -45 3 -83 8 -83 13 0 5 9 18
20 29 28 28 76 26 105 -6 19 -21 31 -25 67 -22 39 3 43 5 40 28 -5 36 -37 84
-67 100 -18 9 -25 22 -25 42 0 26 2 28 43 28 54 0 83 21 98 69 15 49 0 98 -41
135 -37 32 -54 33 -95 1 l-32 -24 -23 24 c-29 31 -45 31 -92 -1z m117 -518
c40 -17 55 -42 55 -94 0 -28 -7 -47 -25 -66 -52 -56 -145 -19 -145 59 l0 36
-47 -3 -48 -3 -3 -42 c-8 -112 -163 -92 -162 21 1 47 14 69 56 91 40 20 270
21 319 1z"/>
<path d="M2712 4591 c-56 -19 -114 -67 -138 -113 -21 -40 -18 -43 34 -42 37 1
59 9 91 32 70 51 171 54 237 10 42 -29 90 -103 105 -161 25 -101 -3 -228 -63
-284 -52 -49 -146 -66 -230 -42 -85 23 -120 92 -75 145 24 27 30 29 116 32
l91 4 0 57 c0 70 -36 148 -79 174 -44 26 -129 23 -172 -6 -33 -22 -66 -88 -53
-108 3 -5 25 -9 49 -9 34 0 47 5 55 20 14 27 65 27 80 1 15 -29 13 -31 -32
-31 -124 -1 -207 -103 -179 -222 17 -74 43 -111 103 -143 46 -25 66 -30 148
-33 111 -5 160 6 226 51 127 85 170 319 91 491 -33 72 -100 144 -162 172 -63
30 -165 32 -243 5z"/>
<path d="M1393 4420 c-72 -15 -123 -50 -152 -107 -19 -38 -13 -43 45 -43 45 0
62 5 86 25 40 34 132 36 172 4 52 -41 37 -49 -89 -49 -90 0 -126 -4 -168 -20
-139 -52 -207 -220 -153 -379 25 -73 93 -141 169 -170 64 -23 184 -29 249 -11
58 17 130 71 162 123 28 45 59 152 49 170 -2 4 -28 7 -57 7 l-54 0 -7 -37
c-17 -95 -94 -153 -201 -153 -102 1 -181 54 -203 137 -22 83 11 168 79 204 30
16 59 19 207 19 l173 0 0 48 c0 115 -69 209 -169 231 -58 12 -78 12 -138 1z"/>
<path d="M3293 4423 c-48 -10 -108 -101 -87 -134 3 -5 25 -9 50 -9 33 0 44 4
44 15 0 21 27 30 45 15 22 -18 18 -30 -8 -30 -35 0 -101 -52 -122 -96 -24 -50
-25 -157 -3 -199 41 -76 117 -115 227 -115 135 0 221 75 221 192 0 65 -28 115
-77 138 -38 18 -39 24 -14 66 23 38 77 59 126 50 72 -14 123 -106 112 -202 -8
-71 -60 -129 -128 -143 -32 -6 -34 -9 -37 -54 l-3 -47 43 0 c57 0 139 39 171
82 44 58 59 106 59 193 1 90 -14 134 -63 196 -103 130 -318 102 -383 -51 l-14
-35 -7 40 c-18 95 -75 144 -152 128z m145 -283 l-3 -50 42 0 c23 0 45 5 48 10
11 18 25 0 25 -33 0 -45 -24 -75 -70 -87 -95 -26 -192 42 -175 123 12 55 50
85 108 86 28 1 29 0 25 -49z"/>
<path d="M4903 4420 c-58 -12 -95 -33 -133 -76 -43 -50 -60 -93 -67 -173 -8
-99 15 -170 75 -230 53 -52 101 -71 182 -71 144 0 239 86 240 217 0 63 -13 99
-48 137 -37 39 -81 56 -145 56 -70 0 -117 -30 -135 -85 -18 -53 -8 -98 29
-135 26 -26 38 -30 84 -30 43 0 60 5 84 26 35 29 38 26 17 -15 -23 -43 -64
-65 -123 -65 -90 -1 -145 56 -151 159 -5 79 7 113 59 160 34 31 46 35 92 35
33 0 66 -7 90 -20 44 -24 127 -28 127 -6 0 25 -53 78 -95 97 -51 22 -128 30
-182 19z"/>
<path d="M5985 4000 c-29 -32 -25 -88 9 -116 35 -31 61 -30 91 1 31 30 33 82
5 113 -27 29 -80 29 -105 2z"/>
<path d="M6220 3998 c-58 -62 16 -168 90 -128 23 12 43 70 34 96 -20 57 -85
73 -124 32z"/>
<path d="M6450 4000 c-31 -31 -27 -93 6 -119 35 -27 65 -27 91 2 30 33 36 62
19 95 -24 47 -81 57 -116 22z"/>
<path d="M5149 3924 c-13 -15 -46 -37 -74 -50 -31 -14 -42 -23 -30 -23 12 -1
38 8 58 18 l37 19 21 -26 21 -27 -29 -12 c-41 -18 -74 -16 -118 7 -62 31 -70
28 -70 -31 0 -46 -4 -54 -37 -85 -33 -29 -45 -34 -89 -34 -46 0 -55 4 -90 39
-22 21 -39 43 -39 48 0 6 28 32 62 58 34 27 56 51 49 53 -7 2 -25 -7 -39 -21
-50 -47 -221 -156 -314 -201 -131 -62 -251 -103 -397 -132 -175 -36 -439 -38
-610 -5 -235 46 -451 136 -638 267 -127 90 -123 87 -123 77 0 -5 23 -26 50
-46 29 -22 50 -45 50 -56 0 -30 -53 -79 -93 -86 -52 -10 -85 1 -124 40 -29 29
-33 40 -33 83 0 42 5 55 30 82 34 37 36 40 15 40 -8 0 -15 -4 -15 -9 0 -5 -21
-19 -46 -31 -46 -23 -63 -22 -131 6 -7 3 -13 1 -13 -6 0 -16 69 -43 97 -37 38
7 8 -21 -37 -34 -55 -17 -137 13 -100 36 16 10 12 25 -5 19 -21 -8 -38 -70
-31 -109 9 -47 47 -89 98 -110 49 -19 94 -14 133 17 26 20 28 20 61 4 73 -34
152 -11 200 61 l21 31 54 -35 c146 -93 339 -174 511 -213 89 -20 97 -23 88
-40 -15 -27 -12 -87 5 -120 17 -33 60 -66 98 -75 18 -5 27 -14 27 -27 0 -64
81 -138 150 -138 70 0 150 74 150 138 0 15 9 22 31 27 16 4 45 22 64 41 44 44
54 91 34 163 -3 10 18 19 76 31 165 37 370 121 514 212 48 30 66 37 70 27 9
-28 68 -77 103 -87 39 -11 99 -2 123 18 11 9 20 7 43 -10 130 -96 299 63 210
197 -24 37 -25 42 -10 56 9 9 13 19 11 22 -3 3 -16 -7 -30 -21z m-1496 -450
c82 -6 88 -8 93 -31 9 -36 -12 -99 -42 -122 -83 -66 -214 -7 -214 96 0 52 16
75 48 69 15 -3 66 -8 115 -12z m367 -3 c39 -75 -32 -181 -121 -181 -36 0 -90
32 -110 64 -21 35 -25 104 -6 111 6 3 55 9 107 14 52 4 100 9 107 10 7 0 17
-8 23 -18z"/>
<path d="M3085 3924 c33 -25 155 -81 239 -109 269 -90 598 -90 862 0 100 34
204 83 204 96 0 5 -19 -1 -42 -15 -54 -30 -245 -90 -359 -110 -53 -10 -143
-16 -235 -16 -226 0 -404 40 -584 130 -81 41 -122 52 -85 24z"/>
<path d="M6000 3761 c0 -7 5 -21 10 -31 15 -28 30 -117 24 -135 -10 -26 -23
-6 -30 46 -4 27 -10 51 -14 54 -4 2 -3 -15 1 -38 5 -23 11 -59 15 -79 4 -21 9
-36 13 -34 3 2 5 -10 5 -27 -1 -18 3 -38 9 -45 5 -7 7 -15 4 -19 -4 -3 -3 -11
1 -17 5 -6 17 -39 27 -74 10 -34 20 -60 23 -58 2 3 -1 21 -8 41 -14 44 -11 49
23 34 18 -8 31 -29 48 -80 13 -37 25 -66 27 -64 2 2 -4 27 -13 55 -9 28 -18
56 -19 63 -1 7 -10 28 -18 48 -9 20 -19 50 -23 68 -4 17 -13 44 -20 59 -8 15
-16 38 -18 52 -5 29 -56 183 -63 189 -2 2 -4 -1 -4 -8z"/>
<path d="M3870 3089 c-19 -6 -39 -15 -44 -20 -6 -5 -20 -9 -33 -9 -40 0 -137
-43 -173 -76 -30 -28 -35 -40 -36 -82 -2 -40 -7 -54 -34 -80 -30 -30 -32 -35
-26 -85 4 -28 8 -78 10 -110 2 -32 7 -61 11 -65 3 -3 20 0 38 8 20 9 59 14
102 12 64 -2 73 1 107 28 27 22 44 29 61 25 15 -4 28 -1 36 9 14 16 15 16 -33
30 -11 4 -13 16 -9 48 3 24 8 45 10 48 8 9 38 -18 43 -40 8 -35 26 -35 39 0 7
22 16 31 28 28 14 -2 19 -15 21 -58 3 -65 -7 -84 -45 -86 -20 0 -28 -6 -28
-20 0 -34 42 -29 80 9 30 30 35 41 35 84 0 30 -7 60 -20 81 -18 28 -25 32 -62
31 -62 -1 -119 11 -125 27 -7 18 -69 54 -94 54 -32 0 -22 21 42 83 59 57 62
59 104 55 53 -6 101 -39 119 -82 15 -36 53 -56 159 -80 79 -18 119 -46 141
-98 23 -55 4 -104 -54 -137 -45 -25 -80 -27 -120 -6 -54 28 -37 54 50 79 81
24 88 30 65 56 -34 38 -73 53 -121 45 -24 -3 -51 -13 -59 -21 -16 -16 -20 -55
-8 -68 4 -4 6 -24 4 -45 -2 -33 3 -44 31 -70 28 -27 41 -31 86 -31 57 0 95 15
126 49 23 25 76 29 76 6 0 -9 11 -27 25 -40 18 -19 35 -25 68 -25 23 0 48 5
54 11 8 8 21 8 46 0 54 -18 101 -5 142 40 35 39 42 68 36 138 -9 99 -162 221
-276 221 -36 0 -55 7 -83 29 -75 58 -221 86 -302 57 -24 -9 -52 -24 -63 -33
-12 -12 -21 -14 -25 -6 -4 5 -23 18 -42 28 -34 17 -34 18 -11 26 12 5 21 15
19 21 -6 17 -44 19 -88 7z m425 -102 l59 -28 -29 -23 c-39 -31 -20 -40 57 -26
47 9 76 9 126 -1 58 -12 72 -20 118 -64 84 -82 97 -175 33 -229 -44 -37 -75
-34 -100 9 -12 19 -25 35 -30 35 -5 0 -17 -17 -27 -37 -14 -31 -23 -37 -42
-35 -34 4 -53 25 -46 50 7 21 38 36 96 48 45 8 70 22 70 37 0 13 -64 61 -95
71 -28 8 -84 -9 -111 -35 l-23 -22 -11 27 c-19 50 -53 85 -110 110 -32 14 -66
26 -76 26 -11 0 -36 5 -57 11 -60 16 -69 76 -14 99 41 18 148 6 212 -23z
m-516 -171 c19 -20 21 -28 11 -46 -7 -13 -9 -37 -5 -59 6 -34 3 -41 -25 -65
-31 -26 -80 -36 -80 -16 0 6 6 10 13 10 7 0 28 13 46 28 31 25 33 31 24 57
-14 44 -56 71 -90 59 -37 -13 -53 -57 -30 -82 23 -26 22 -29 -13 -24 -37 5
-39 29 -6 91 36 69 113 92 155 47z"/>
<path d="M2137 3049 l-48 -31 -58 16 c-92 26 -172 23 -234 -7 -43 -22 -54 -24
-67 -13 -86 76 -282 56 -366 -36 -31 -35 -35 -44 -32 -86 3 -46 4 -47 46 -61
34 -10 46 -11 57 -1 21 18 0 42 -29 34 -14 -3 -28 1 -36 11 -19 23 8 71 63
110 38 27 51 30 127 33 74 2 90 0 125 -20 24 -14 47 -38 57 -61 21 -43 48 -62
103 -71 129 -22 205 -76 205 -147 0 -71 -51 -119 -127 -119 -45 0 -85 25 -81
48 2 11 30 26 78 42 41 14 75 30 75 37 0 7 -15 24 -34 38 -78 57 -212 9 -167
-60 10 -15 12 -26 6 -30 -36 -22 29 -110 89 -120 88 -15 171 36 196 120 35
115 -49 200 -227 230 -39 6 -68 27 -68 49 0 7 11 23 25 36 33 31 112 37 180
13 l50 -18 -3 -43 c-4 -52 17 -82 59 -82 49 0 76 64 44 106 -8 10 -15 22 -15
26 0 16 53 41 102 47 38 4 53 10 53 21 0 11 -14 16 -50 18 -42 2 -58 -2 -98
-29z"/>
<path d="M2552 3048 c-5 -7 -17 -28 -26 -45 -14 -28 -22 -33 -51 -33 -59 0
-68 -60 -11 -74 27 -7 76 8 87 26 13 21 101 -21 148 -71 69 -72 87 -132 57
-190 -8 -15 -26 -35 -40 -45 -56 -36 -168 -7 -181 47 -8 32 18 92 45 107 34
18 44 -2 15 -30 -34 -32 -34 -83 0 -106 36 -23 110 -11 131 22 28 42 -2 103
-50 104 -11 0 -16 3 -13 7 15 14 -18 33 -57 33 -52 0 -83 -21 -106 -73 -17
-37 -18 -38 -25 -16 -9 31 -52 76 -89 94 -46 24 -146 19 -194 -8 -74 -42 -102
-95 -79 -149 24 -56 70 -88 129 -88 41 0 54 5 79 29 39 39 40 91 3 120 -63 49
-197 -6 -148 -60 27 -30 87 -26 113 9 l20 27 1 -29 c0 -34 -24 -55 -63 -56
-35 0 -83 24 -97 49 -14 28 5 73 42 101 95 70 233 25 247 -81 7 -50 34 -66 45
-27 6 22 7 22 23 -10 27 -55 57 -72 129 -72 167 0 225 146 121 301 -24 36 -83
74 -146 95 -28 9 -51 19 -51 22 0 3 9 15 20 27 12 13 18 29 14 38 -7 20 -28
22 -42 5z"/>
<path d="M5009 2854 c-50 -21 -66 -53 -44 -87 9 -15 25 -29 35 -32 10 -3 36
-19 59 -35 32 -24 41 -37 41 -60 0 -23 -5 -31 -25 -36 -14 -3 -39 -1 -55 6
-25 10 -30 18 -30 45 0 42 -22 62 -44 40 -9 -9 -16 -29 -16 -44 0 -34 -17 -51
-51 -51 -75 0 -100 88 -40 142 24 21 41 28 63 26 37 -4 48 16 18 32 -31 17
-103 -12 -135 -54 -77 -101 37 -231 149 -171 31 17 35 17 57 2 29 -21 69 -22
114 -3 48 20 62 54 41 97 -20 39 -20 40 -1 32 26 -9 55 26 55 66 -1 84 -94
125 -191 85z"/>
<path d="M3339 2837 c-55 -37 -51 -67 15 -116 30 -22 57 -45 60 -50 21 -33
-49 -72 -131 -73 -54 -1 -106 22 -127 54 -16 26 26 64 85 78 50 12 54 16 43
45 -22 57 -185 58 -207 1 -8 -21 19 -46 49 -46 24 0 24 -1 9 -16 -10 -11 -15
-29 -13 -52 2 -29 11 -43 46 -69 40 -30 50 -33 113 -33 71 0 128 17 161 47 23
20 23 71 1 95 -15 17 -15 18 9 18 29 0 42 13 52 53 5 23 1 34 -23 57 -37 38
-92 41 -142 7z"/>
<path d="M1427 2800 c-40 -12 -57 -29 -57 -54 0 -29 18 -46 48 -46 37 0 62 18
62 45 0 27 21 33 39 12 8 -11 5 -19 -12 -34 -52 -48 -110 -56 -164 -23 -39 24
-49 12 -27 -32 39 -78 87 -108 172 -108 83 0 126 29 130 89 2 24 -2 49 -9 58
-10 12 -10 16 2 24 26 16 65 10 89 -16 21 -22 27 -49 30 -142 0 -18 25 -16 40
3 11 12 11 28 2 74 -19 106 -79 154 -161 129 -36 -11 -43 -10 -60 5 -23 21
-85 29 -124 16z"/>
<path d="M6180 2709 c-17 -29 -31 -39 -50 -39 -44 0 -69 -11 -76 -34 -9 -30
-44 -66 -65 -66 -22 0 -29 -20 -29 -89 0 -104 33 -157 78 -125 25 18 27 38 8
76 -8 15 -16 55 -18 89 l-3 62 40 12 c61 18 89 40 119 96 34 61 31 73 -4 18z"/>
<path d="M5155 2539 c-89 -8 -104 -12 -158 -48 -66 -42 -87 -116 -47 -159 35
-37 48 -29 42 27 -4 49 -4 49 39 78 39 26 51 28 153 31 131 5 177 -8 355 -94
322 -158 358 -169 529 -169 50 0 92 -3 92 -7 0 -20 -92 -198 -120 -232 -103
-127 -203 -206 -298 -235 -150 -47 -184 -50 -309 -21 -219 51 -336 163 -335
320 0 83 30 135 96 168 91 46 226 15 280 -64 30 -45 33 -75 9 -115 -23 -39
-61 -52 -125 -45 l-53 7 29 -27 c27 -23 36 -26 91 -22 102 6 151 63 143 165
-4 46 -10 60 -42 92 -64 66 -116 86 -226 86 -80 0 -102 -4 -140 -23 -141 -74
-186 -215 -116 -368 32 -69 134 -174 199 -203 26 -12 46 -25 43 -29 -3 -5 -24
-9 -48 -10 -101 -6 -218 -38 -218 -60 0 -13 38 -31 86 -42 76 -17 369 -40 515
-40 139 0 429 23 509 41 25 6 56 17 68 25 l24 16 -21 14 c-26 19 -130 40 -236
50 -126 11 -129 14 -49 59 123 68 272 232 332 365 55 122 96 257 94 312 -2 89
-139 148 -237 101 -46 -22 -44 -39 4 -47 107 -17 59 -116 -57 -116 -68 0 -200
36 -307 85 -16 7 -50 22 -75 33 -25 11 -72 29 -105 39 -33 9 -62 20 -65 23 -7
8 -164 38 -220 42 -25 2 -81 1 -125 -3z"/>
<path d="M1632 2360 c-78 -37 -97 -51 -190 -143 -154 -152 -182 -306 -68 -376
42 -26 145 -38 201 -22 55 15 95 58 97 104 1 42 11 40 37 -11 11 -20 33 -50
51 -67 31 -30 33 -30 141 -30 98 0 112 2 125 19 19 27 18 75 -3 99 -17 18 -17
20 6 38 23 19 77 25 97 11 40 -27 56 -100 33 -145 -20 -38 -52 -67 -73 -67
-31 0 -48 -14 -40 -33 18 -47 119 9 150 82 40 97 -14 211 -100 211 -23 0 -47
-4 -55 -9 -9 -6 -22 -4 -35 4 -21 13 -50 18 -93 16 -12 -1 -38 -15 -57 -32
-40 -35 -54 -82 -38 -129 10 -27 9 -29 -6 -21 -32 18 -79 76 -96 119 -32 84
-12 186 48 241 29 27 33 52 12 70 -10 8 -37 9 -102 1 -48 -5 -89 -8 -91 -6 -7
7 64 46 95 52 35 7 57 28 47 44 -10 16 -25 12 -93 -20z m-24 -126 c16 5 86 9
105 7 5 -1 -4 -24 -20 -53 -23 -43 -28 -63 -28 -124 l0 -73 -26 25 c-46 44
-153 58 -232 30 -37 -13 -37 -13 -31 8 10 35 32 63 105 141 70 74 70 74 90 54
11 -11 28 -18 37 -15z m-28 -240 c33 -13 41 -22 46 -51 9 -49 -16 -72 -88 -80
-79 -8 -121 3 -157 39 -37 37 -37 43 -11 66 47 40 144 52 210 26z"/>
<path d="M2596 2346 c-34 -57 -33 -87 4 -153 24 -42 30 -64 30 -113 0 -33 -2
-60 -5 -60 -3 0 -17 7 -30 16 -19 12 -40 15 -83 11 -50 -4 -62 -2 -95 21 -35
23 -40 24 -78 13 -56 -17 -93 -54 -79 -80 5 -11 19 -22 30 -26 28 -9 74 16 78
43 2 12 10 22 17 22 20 0 30 -21 14 -31 -34 -20 -124 -86 -152 -110 -35 -30
-29 -53 10 -43 20 5 30 2 44 -17 16 -22 25 -24 92 -23 59 0 80 4 104 22 55 39
51 105 -7 141 -36 21 -24 31 40 31 53 0 81 -25 87 -81 8 -74 -25 -117 -111
-144 -18 -5 -18 -7 -4 -21 25 -25 69 -9 119 42 l44 45 0 140 c0 112 3 138 13
134 65 -25 113 -15 165 33 49 46 29 126 -38 152 -53 20 -105 -41 -69 -81 9
-10 22 -19 29 -19 18 0 48 37 40 49 -3 6 -1 11 5 11 6 0 14 -10 19 -22 12 -32
-13 -76 -47 -84 -15 -3 -33 -7 -40 -10 -7 -2 -29 3 -48 11 -30 12 -34 18 -34
52 0 86 -13 173 -25 173 -7 0 -25 -20 -39 -44z"/>
<path d="M5640 2024 c-39 -107 -108 -185 -182 -204 -51 -14 -124 -8 -170 16
-41 20 -115 90 -134 127 -8 15 -19 27 -24 27 -12 0 -3 -43 17 -83 8 -15 32
-46 55 -69 117 -117 319 -124 416 -14 43 50 54 78 54 150 0 69 -16 94 -32 50z"/>
<path d="M1798 1193 c-31 -16 -36 -31 -13 -39 8 -4 15 -10 15 -14 0 -12 -49
-18 -53 -7 -2 6 -11 8 -20 4 -22 -8 -22 -50 1 -70 37 -34 102 -12 102 34 0 20
24 26 35 9 11 -18 -4 -44 -42 -72 -31 -24 -33 -29 -18 -34 13 -5 30 5 61 39
49 51 49 68 1 88 -18 7 -37 20 -43 28 -10 13 -6 18 18 30 27 13 34 13 57 0 20
-12 26 -22 25 -47 -1 -21 3 -32 12 -32 8 0 14 -4 14 -10 0 -5 13 -16 30 -25
43 -22 54 -48 36 -84 -24 -45 -79 -56 -111 -21 -20 22 -21 21 52 40 27 7 40
15 37 23 -8 19 -53 49 -64 42 -16 -10 -12 -23 10 -30 31 -10 23 -25 -13 -25
-69 0 -85 -45 -26 -75 37 -19 64 -19 95 1 30 20 58 70 50 90 -3 9 1 14 14 14
24 0 26 23 4 45 -25 24 -74 47 -90 41 -10 -4 -14 2 -14 19 0 48 -100 71 -162
38z"/>
<path d="M5731 1114 c-50 -63 -4 -173 72 -174 39 0 90 51 85 85 -4 36 -23 31
-23 -6 0 -31 -25 -59 -53 -59 -8 0 -30 16 -49 35 -29 29 -34 40 -31 71 2 20
10 41 19 47 42 26 103 -30 75 -69 -19 -25 -39 -8 -31 27 8 36 -1 37 -31 3 -29
-31 -30 -38 -4 -31 11 3 17 1 14 -4 -6 -11 13 -39 27 -39 21 0 49 42 49 73 0
66 -78 93 -119 41z"/>
<path d="M5615 1036 c-13 -13 -38 -27 -55 -31 -21 -5 -30 -13 -30 -26 0 -22
20 -25 39 -6 11 10 12 5 7 -26 -4 -21 -9 -44 -12 -51 -3 -9 6 -13 30 -14 62
-2 87 60 41 102 -22 21 -23 25 -10 36 23 19 45 -7 59 -71 14 -59 35 -80 60
-60 9 8 16 23 16 35 -1 20 -1 20 -15 2 -17 -22 -32 -14 -32 17 0 37 -40 117
-58 117 -9 0 -27 -11 -40 -24z"/>
<path d="M5323 930 c-18 -11 -33 -27 -33 -36 0 -13 4 -12 26 5 15 12 38 21 51
21 31 0 73 -42 73 -75 0 -30 -32 -65 -60 -65 -27 0 -25 8 6 32 28 23 29 55 2
72 -33 20 -53 -4 -53 -64 0 -69 19 -84 72 -55 62 34 65 119 6 165 -32 25 -49
25 -90 0z"/>
<path d="M5190 902 c-19 -9 -39 -26 -45 -38 -9 -18 -13 -19 -30 -8 -17 11 -25
10 -52 -2 -40 -20 -58 -47 -66 -101 -7 -40 4 -65 18 -43 3 5 13 10 20 10 19 0
8 -30 -19 -52 -20 -16 -20 -17 -2 -37 24 -26 50 -27 76 -1 25 25 26 64 1 89
-21 21 -18 31 11 31 21 0 38 -36 38 -81 0 -20 4 -29 13 -26 13 4 11 74 -4 114
-10 27 -44 31 -71 6 -10 -9 -29 -18 -43 -19 -22 -2 -24 0 -19 24 7 30 47 72
69 72 8 0 21 -10 30 -22 9 -14 18 -19 23 -13 6 9 49 28 93 42 20 6 57 -26 64
-57 7 -31 -27 -80 -56 -80 -23 0 -24 10 -4 57 22 52 20 56 -22 48 -43 -8 -58
-18 -49 -34 5 -8 13 -8 27 0 31 16 34 4 14 -42 -16 -35 -17 -42 -4 -50 8 -5
25 -7 39 -3 74 17 96 109 41 165 -16 16 -25 32 -20 35 12 7 -8 34 -25 34 -6 0
-27 -8 -46 -18z"/>
<path d="M2285 870 c-8 -14 3 -30 21 -30 8 0 14 -4 14 -9 0 -11 -25 -21 -55
-21 -12 0 -29 -7 -36 -16 -11 -14 -10 -20 14 -40 16 -13 35 -24 44 -24 14 0
13 -4 -5 -23 -25 -27 -28 -37 -8 -37 7 0 21 11 30 24 8 14 25 27 36 31 14 4
19 12 16 21 -3 9 6 27 20 41 24 23 27 24 36 10 5 -10 17 -17 26 -17 10 -1 2
-8 -18 -18 -38 -18 -51 -52 -30 -78 17 -19 69 -18 77 1 8 23 -2 28 -26 13 -16
-10 -23 -10 -33 0 -17 17 12 46 62 61 39 12 46 31 12 31 -9 0 -28 9 -42 20
-37 29 -54 25 -93 -21 -29 -36 -38 -41 -61 -35 -41 10 -32 34 19 47 53 14 65
27 39 45 -10 7 -24 18 -31 24 -15 13 -20 13 -28 0z"/>
<path d="M2671 771 c-17 -32 -25 -39 -48 -37 -15 0 -37 9 -48 19 -11 10 -26
16 -34 15 -20 -4 -26 -28 -7 -28 32 0 25 -21 -13 -36 -46 -18 -47 -21 -25 -52
18 -26 65 -30 88 -6 9 8 16 29 16 45 0 31 1 32 24 23 23 -9 20 -35 -9 -74 -27
-36 -24 -61 5 -35 20 18 47 70 54 106 3 14 17 42 30 62 24 35 24 37 6 37 -13
0 -27 -14 -39 -39z"/>
<path d="M2998 675 c-25 -50 -46 -57 -99 -30 -29 16 -49 13 -49 -6 0 -5 6 -9
14 -9 28 0 27 -19 -1 -34 -57 -31 -58 -32 -35 -56 42 -45 122 -10 107 47 -4
18 -1 23 14 23 30 0 31 -23 5 -70 -28 -50 -28 -50 -9 -50 20 0 56 73 60 122 2
21 13 55 24 74 16 27 18 34 6 34 -9 0 -25 -20 -37 -45z"/>
<path d="M3483 605 c-41 -29 -24 -55 36 -55 56 0 81 -70 41 -110 -20 -20 -74
-27 -84 -11 -3 5 10 23 30 40 38 34 40 60 4 63 -11 0 -25 1 -32 2 -6 1 -13 -5
-15 -11 -3 -8 5 -13 21 -13 36 0 32 -16 -9 -42 -55 -36 -40 -68 31 -68 34 0
47 5 63 27 28 35 36 71 24 104 -8 21 -7 30 4 41 12 12 12 17 1 26 -25 21 -91
25 -115 7z"/>
<path d="M4570 605 c-14 -7 -40 -12 -57 -11 -20 1 -34 -3 -38 -12 -8 -22 -6
-25 20 -20 14 3 25 1 25 -4 0 -18 -21 -48 -30 -43 -15 9 -22 -14 -10 -35 14
-26 64 -26 90 0 24 24 25 38 4 69 -18 26 -6 48 20 38 12 -5 16 -21 16 -61 0
-45 3 -54 15 -50 18 7 21 94 5 125 -12 22 -26 23 -60 4z"/>
<path d="M3643 570 c-35 -14 -27 -26 13 -22 69 8 110 -67 63 -117 -15 -16 -30
-21 -52 -19 -41 4 -49 28 -9 28 35 0 55 20 50 52 -2 15 -11 24 -26 26 -45 7
-94 -66 -72 -108 9 -18 19 -21 57 -18 58 4 88 38 88 99 0 33 -6 46 -28 65 -30
25 -48 28 -84 14z"/>
<path d="M4076 509 c-54 -64 -21 -169 53 -169 32 0 91 43 91 66 0 21 -18 17
-31 -8 -38 -72 -109 -39 -109 49 0 45 25 83 55 83 21 0 55 -36 55 -58 0 -23
-19 -42 -42 -42 -24 0 -23 15 3 39 14 13 17 21 9 26 -7 4 -17 2 -23 -4 -6 -6
-19 -11 -29 -11 -10 0 -18 -4 -18 -10 0 -5 6 -10 14 -10 9 0 12 -7 9 -21 -6
-21 10 -39 35 -39 24 0 62 48 62 78 0 38 -28 62 -72 62 -28 0 -42 -7 -62 -31z"/>
<path d="M3876 523 c-13 -13 -5 -34 12 -32 35 3 35 -2 -3 -41 -28 -29 -34 -40
-22 -40 9 0 17 -4 17 -10 0 -17 56 -11 73 8 20 22 22 63 5 80 -9 9 -7 13 5 18
39 14 44 -17 21 -133 -5 -29 -3 -33 21 -39 18 -5 30 -2 36 7 14 23 10 30 -11
19 -28 -15 -35 7 -15 46 8 16 15 48 15 72 0 49 -17 61 -61 45 -15 -6 -30 -8
-33 -5 -9 8 -53 11 -60 5z"/>
</g>
</svg>
